<?xml version="1.0"?>
<svg xmlns="http://www.w3.org/2000/svg" viewBox="0 0 13.02 19.66">
  <defs>
    <style>.cls-1{fill:#00afc8;}.cls-2{fill:#fff;}</style>
  </defs>
  <g id="Layer_2" data-name="Layer 2">
    <g id="Logo">
      <g id="Location">
        <path class="cls-1" d="M13,6.51a6.51,6.51,0,0,0-13,0A6.44,6.44,0,0,0,.83,9.69h0l5.68,10,5.68-10h0A6.44,6.44,0,0,0,13,6.51Z"/>
      </g>
      <path class="cls-2" d="M5.91,4.51V5.76a1.14,1.14,0,0,1,.86-.34A1.44,1.44,0,0,1,8.24,7v.79A1.67,1.67,0,0,1,6.48,9.54a1.62,1.62,0,0,1-1.7-1.75V7.66H5.89v.15c0,.44.24.7.6.7s.61-.26.61-.7V7.08c0-.44-.24-.69-.61-.69a.59.59,0,0,0-.59.5h-1V3.51h3.2v1Z"/>
    </g>
  </g>
</svg>
