<?xml version="1.0"?>
<svg xmlns="http://www.w3.org/2000/svg" viewBox="0 0 13.02 19.66">
  <defs>
    <style>.cls-1{fill:#00afc8;}.cls-2{fill:#fff;}</style>
  </defs>
  <g id="Layer_2" data-name="Layer 2">
    <g id="Logo">
      <g id="Location">
        <path class="cls-1" d="M13,6.51a6.51,6.51,0,0,0-13,0A6.44,6.44,0,0,0,.83,9.69h0l5.68,10,5.68-10h0A6.44,6.44,0,0,0,13,6.51Z"/>
      </g>
      <path class="cls-2" d="M8.34,7.24v.45A1.75,1.75,0,0,1,6.51,9.54,1.72,1.72,0,0,1,4.69,7.71V7.47A3.06,3.06,0,0,1,5,6.08L6.35,3.51H7.6L6.38,5.69a1.26,1.26,0,0,1,.47-.1A1.49,1.49,0,0,1,8.34,7.24Zm-1.14,0a.68.68,0,0,0-.69-.78c-.42,0-.68.29-.68.78v.44c0,.5.26.79.68.79s.69-.29.69-.79Z"/>
    </g>
  </g>
</svg>
