<?xml version="1.0"?>
<svg xmlns="http://www.w3.org/2000/svg" viewBox="0 0 13.02 19.66">
  <defs>
    <style>.cls-1{fill:#00afc8;}.cls-2{fill:#fff;}</style>
  </defs>
  <g id="Layer_2" data-name="Layer 2">
    <g id="Logo">
      <g id="Location">
        <path class="cls-1" d="M13,6.51a6.51,6.51,0,0,0-13,0A6.44,6.44,0,0,0,.83,9.69h0l5.68,10,5.68-10h0A6.44,6.44,0,0,0,13,6.51Z"/>
      </g>
      <path class="cls-2" d="M4.84,5A1.6,1.6,0,0,1,6.52,3.42,1.55,1.55,0,0,1,8.18,5v.15a1.51,1.51,0,0,1-.67,1.27A1.47,1.47,0,0,1,8.26,7.7v.23A1.65,1.65,0,0,1,6.5,9.54,1.63,1.63,0,0,1,4.76,7.9V7.61H5.83V7.8c0,.47.25.74.65.74s.64-.27.64-.74V7.57a.65.65,0,0,0-.68-.74H6V6h.46A.57.57,0,0,0,7,5.32V5.07c0-.4-.22-.64-.56-.64s-.56.24-.56.65v.15H4.84Z"/>
    </g>
  </g>
</svg>
