<?xml version="1.0"?>
<svg xmlns="http://www.w3.org/2000/svg" viewBox="0 0 13.02 19.66">
  <defs>
    <style>.cls-1{fill:#00afc8;}.cls-2{fill:#fff;}</style>
  </defs>
  <g id="Layer_2" data-name="Layer 2">
    <g id="Logo">
      <g id="Location">
        <path class="cls-1" d="M13,6.51a6.51,6.51,0,0,0-13,0A6.44,6.44,0,0,0,.83,9.69h0l5.68,10,5.68-10h0A6.44,6.44,0,0,0,13,6.51Z"/>
      </g>
      <path class="cls-2" d="M6.19,8.45H8.25v1H4.77V8.67l2-2.6a1.32,1.32,0,0,0,.34-.88c0-.46-.25-.73-.63-.73s-.62.27-.62.73v.3H4.77V5.22a1.69,1.69,0,0,1,1.75-1.8A1.63,1.63,0,0,1,8.25,5,2.79,2.79,0,0,1,7.5,6.81Z"/>
    </g>
  </g>
</svg>
